<svg width="133" height="29" viewBox="0 0 133 29" fill="none" xmlns="http://www.w3.org/2000/svg">
<path d="M14.1012 28.0913C21.6296 28.0913 27.7325 21.9712 27.7325 14.4217C27.7325 6.87224 21.6296 0.752167 14.1012 0.752167C6.57276 0.752167 0.469788 6.87224 0.469788 14.4217C0.469788 21.9712 6.57276 28.0913 14.1012 28.0913Z" fill="#6F39F8"/>
<path d="M22.7769 16C22.7769 16.3521 22.7248 16.7174 22.6338 17.0565V17.0695L22.5427 17.3304V17.3435C22.3476 17.7739 22.1265 18.1913 21.8664 18.5826L21.8534 18.5956C20.4226 20.7217 18.4845 21.2304 17.431 21.3608C17.2229 21.3869 17.0538 21.4 16.9107 21.413H16.8977H16.8847H16.7676H16.6766H16.6635H16.6115H16.5725H16.5595C16.4164 21.4 16.2603 21.3608 16.1173 21.3087C15.9872 21.2565 15.8701 21.1913 15.7531 21.113C15.623 21.0217 15.5189 20.8913 15.4279 20.7608C15.2198 20.4087 15.0637 20.0043 14.9856 19.6C14.9466 19.4435 14.9336 19.2739 14.9076 19.1043C14.9076 19.0913 14.9076 19.0913 14.9076 19.0782V19.0652V19.0782C14.8556 19.1695 14.8035 19.2478 14.7515 19.3391C14.7125 19.4043 14.6605 19.4826 14.6214 19.5478C14.5694 19.6261 14.5174 19.6913 14.4654 19.7695C14.4393 19.8087 14.4133 19.8478 14.3743 19.8739C14.2833 19.9782 14.1922 20.0826 14.1012 20.1869C14.0621 20.2261 14.0361 20.2521 13.9971 20.2913C13.9581 20.3304 13.9321 20.3565 13.893 20.3956C13.828 20.4608 13.75 20.5261 13.6849 20.5782C13.6069 20.6435 13.5289 20.6956 13.4638 20.7608C12.8525 21.2304 12.0981 21.4782 11.3307 21.4652H11.2396C9.87387 21.4521 8.83331 21.1913 8.09191 20.6695C7.3375 20.1348 6.9603 19.3391 6.9603 18.2826C6.9603 18.0087 6.98631 17.7217 7.03834 17.4478C7.05135 17.3826 7.06435 17.3304 7.07736 17.2652C8.11792 14.3826 8.41709 11.3956 8.49513 9.47824L8.53415 9.29563C8.57317 9.06084 8.72925 8.85215 8.93737 8.73476C9.45765 8.46084 10.134 8.31737 10.9665 8.31737C11.7859 8.31737 12.2412 8.85215 12.3582 9.92171C12.4493 10.7956 12.4102 11.5782 12.2412 12.2695C12.0721 12.9608 11.8509 13.8217 11.5648 14.8652C11.2786 15.9087 11.1356 16.8348 11.1356 17.6304C11.1356 18.2304 11.4867 18.5565 12.2021 18.5956C12.2412 18.5956 12.2932 18.5956 12.3452 18.5956C13.2167 18.5956 13.9711 17.8261 14.6084 16.2869C15.1027 15.113 15.4409 13.7956 15.623 12.3478C15.623 12.3348 15.623 12.3087 15.61 12.2956C15.597 12.1652 15.584 11.9956 15.571 11.8C15.558 11.5782 15.558 11.3565 15.5449 11.1478C15.5319 10.9391 15.5319 10.7174 15.5319 10.5087V10.0261C15.5319 8.82606 16.4554 8.23911 18.3154 8.23911C18.7707 8.23911 19.0699 8.39563 19.1869 8.69563C19.304 8.99563 19.369 9.46519 19.369 10.0913C19.369 10.9652 19.1739 12.3217 18.7837 14.1608C18.6276 14.8782 18.5105 15.5043 18.4195 16.0391C18.4065 16.1174 18.3935 16.1956 18.3805 16.2608C18.2634 16.9782 18.2114 17.513 18.2244 17.8652C18.2244 18.1652 18.3285 18.3217 18.5236 18.3217C18.7967 18.3217 19.1219 18.1521 19.5121 17.813C19.5251 17.8 19.5511 17.7869 19.5641 17.7739L19.6292 17.7217C19.9803 17.4087 20.3315 17.0695 20.6957 16.7174C21.0859 16.313 21.4371 15.9478 21.7753 15.6087C22.1005 15.2695 22.3346 15.1 22.4517 15.1C22.6468 15.0869 22.7769 15.3869 22.7769 16Z" fill="white"/>
<path d="M16.8852 21.413L16.7676 21.4L16.8852 21.413Z" fill="#333333"/>
<path d="M32.6232 18.1652C32.6882 18.6087 32.8703 18.9739 33.1564 19.2478C33.4426 19.5217 33.8718 19.6652 34.4181 19.6652C34.9904 19.6652 35.5107 19.5478 35.992 19.3C36.4602 19.0652 36.8504 18.7261 37.1756 18.2957C37.4878 17.8652 37.6959 17.3696 37.7999 16.8087L39.2437 8.64348H42.3524L40.0502 21.9217H36.9415L37.2537 19.9522C36.7724 20.6696 36.2001 21.2174 35.5237 21.5957C34.8473 21.9739 34.0669 22.1696 33.1564 22.1696C32.1549 22.1696 31.3615 21.9478 30.7631 21.4913C30.1648 21.0348 29.7616 20.4217 29.5535 19.6391C29.3454 18.8565 29.3064 17.9957 29.4364 17.0565L30.9062 8.63043H34.0149L32.6101 16.7174C32.5581 17.2522 32.5581 17.7348 32.6232 18.1652Z" fill="#3C3C3B"/>
<path d="M52.0817 12.387C52.0036 11.9304 51.8215 11.5652 51.5354 11.2913C51.2492 11.0174 50.82 10.8739 50.2347 10.8739C49.6624 10.8739 49.1421 11.0043 48.6608 11.2652C48.1926 11.5261 47.8024 11.8652 47.4902 12.2956C47.178 12.713 46.9959 13.2087 46.9179 13.7696L45.4741 21.9348H42.3654L44.6677 8.65652H47.7503L47.4642 10.587C47.9194 9.89565 48.4917 9.34782 49.1811 8.95652C49.8575 8.56521 50.6509 8.36956 51.5224 8.36956C52.5239 8.35652 53.3173 8.57826 53.9157 9.04782C54.514 9.51739 54.9172 10.1435 55.1253 10.9261C55.3334 11.7087 55.3855 12.5565 55.2684 13.4826L53.8246 21.9478H50.6899L52.0687 13.8609C52.1597 13.3261 52.1597 12.8304 52.0817 12.387Z" fill="#3C3C3B"/>
<path d="M61.8109 8.64347L59.5607 21.9217H56.5431L58.7283 8.64347H61.8109ZM59.8079 2.00434C60.1851 1.63912 60.6403 1.45651 61.1736 1.45651C61.7329 1.45651 62.2012 1.63912 62.5654 2.00434C62.9426 2.36956 63.1247 2.82608 63.1247 3.36086C63.1247 3.89564 62.9426 4.35216 62.5654 4.70434C62.1881 5.05651 61.7199 5.23912 61.1736 5.23912C60.6403 5.23912 60.1851 5.05651 59.8079 4.70434C59.4307 4.35216 59.2486 3.89564 59.2486 3.36086C59.2486 2.82608 59.4307 2.36956 59.8079 2.00434Z" fill="#3C3C3B"/>
<path d="M65.9342 8.64346L67.9763 17.1348L72.6068 8.64346H76.0276L67.0398 23.2L62.6174 8.64346H65.9342Z" fill="#3C3C3B"/>
<path d="M76.6519 21.4913C75.7545 21.0087 75.0651 20.3174 74.5578 19.4174C74.0636 18.5174 73.8034 17.4217 73.8034 16.1565C73.8034 15.1 73.9985 14.0957 74.3757 13.1565C74.7659 12.2174 75.2992 11.3826 76.0016 10.6783C76.704 9.96087 77.5234 9.4 78.4599 8.99566C79.3964 8.57826 80.437 8.36957 81.5686 8.36957C82.7652 8.36957 83.7798 8.59131 84.6252 9.04783C85.4707 9.50435 86.1211 10.1565 86.5893 11.0304C87.0446 11.8913 87.2787 12.9609 87.2787 14.213C87.2787 14.5261 87.2397 14.8522 87.1746 15.1913C87.1096 15.5435 87.0315 15.8174 86.9535 16.0261H75.5203V13.8609H84.6513L83.7017 15.1913C83.7928 14.9826 83.8838 14.7478 83.9619 14.513C84.0399 14.2783 84.0789 14.0304 84.0789 13.8087C84.0789 13.1696 83.9749 12.6348 83.7798 12.1783C83.5847 11.7217 83.2725 11.3696 82.8693 11.1217C82.4661 10.8739 81.9458 10.7435 81.3085 10.7435C80.6581 10.7435 80.0728 10.8739 79.5525 11.1348C79.0322 11.3957 78.577 11.7609 78.1998 12.2174C77.8096 12.6739 77.5104 13.2217 77.2893 13.8348C77.0682 14.4478 76.9381 15.1261 76.8991 15.8565C76.8601 16.613 76.9511 17.2783 77.1592 17.8522C77.3673 18.4261 77.7185 18.8826 78.1998 19.1957C78.681 19.5087 79.2794 19.6652 80.0078 19.6652C80.8272 19.6652 81.5816 19.4696 82.245 19.0783C82.9083 18.687 83.4546 18.1783 83.8969 17.5652L86.4852 18.6348C85.7959 19.7304 84.8854 20.6044 83.7538 21.2565C82.6222 21.9087 81.2824 22.2348 79.7476 22.2348C78.59 22.2087 77.5494 21.9739 76.6519 21.4913Z" fill="#3C3C3B"/>
<path d="M90.2833 21.9217H87.2007L89.5029 8.64347H92.5595L90.2833 21.9217ZM95.174 11.4609C94.9398 11.3304 94.6537 11.2783 94.3285 11.2783C93.7952 11.2652 93.34 11.4087 92.9628 11.7087C92.5856 12.0217 92.2864 12.413 92.0523 12.9087C91.8182 13.4043 91.6621 13.9 91.558 14.4217L90.6605 13.8217C90.8166 12.9217 91.1288 12.0478 91.597 11.2261C92.0653 10.4043 92.6376 9.71304 93.3009 9.17826C93.9643 8.64347 94.6927 8.35652 95.4731 8.34348C95.9284 8.34348 96.3576 8.43478 96.7218 8.63043C97.099 8.82608 97.4502 9.07391 97.7754 9.38695L95.9024 11.9304C95.6552 11.7478 95.4081 11.5783 95.174 11.4609Z" fill="#3C3C3B"/>
<path d="M98.868 18.7391C99.2582 19.0783 99.6614 19.3391 100.104 19.5217C100.546 19.7043 101.014 19.7956 101.508 19.7956C102.042 19.7956 102.497 19.6391 102.848 19.3391C103.199 19.0261 103.381 18.6609 103.381 18.2435C103.381 17.8652 103.264 17.5261 103.017 17.2522C102.783 16.9783 102.458 16.7435 102.068 16.5478C101.677 16.3522 101.261 16.1696 100.845 16C100.312 15.7913 99.7785 15.5304 99.2712 15.2043C98.7639 14.8913 98.3477 14.4869 98.0225 13.9913C97.6973 13.4956 97.5412 12.8826 97.5673 12.1261C97.6063 11.3043 97.8404 10.6 98.2827 10.0522C98.7249 9.4913 99.2972 9.0739 100.013 8.79999C100.728 8.52608 101.456 8.3826 102.224 8.3826C103.303 8.3826 104.253 8.60434 105.072 9.04782C105.905 9.49129 106.581 10.0522 107.114 10.7174L105.411 12.4783C105.007 11.9956 104.526 11.5783 103.967 11.2391C103.407 10.8869 102.822 10.7174 102.211 10.7174C101.717 10.7174 101.3 10.8348 100.975 11.0565C100.65 11.2913 100.481 11.5913 100.481 11.9565C100.468 12.3087 100.572 12.5956 100.793 12.8174C101.027 13.0522 101.326 13.2478 101.69 13.4174C102.055 13.5869 102.471 13.7696 102.926 13.9652C103.564 14.2522 104.149 14.5652 104.682 14.8913C105.215 15.2174 105.658 15.6348 105.983 16.1304C106.308 16.6261 106.464 17.2652 106.438 18.0348C106.399 18.8565 106.165 19.6 105.749 20.2391C105.319 20.8783 104.76 21.387 104.032 21.7391C103.316 22.0913 102.484 22.2739 101.547 22.2739C100.663 22.3 99.8565 22.1565 99.1151 21.8696C98.3737 21.5826 97.7233 21.2043 97.1771 20.7609C96.6177 20.3043 96.1495 19.8348 95.7723 19.3261L97.7624 17.5652C98.1136 18.0217 98.4778 18.4 98.868 18.7391Z" fill="#3C3C3B"/>
<path d="M112.226 8.64347L109.976 21.9217H106.958L109.144 8.64347H112.226ZM110.223 2.00434C110.6 1.63912 111.056 1.45651 111.589 1.45651C112.148 1.45651 112.616 1.63912 112.981 2.00434C113.358 2.36956 113.54 2.82608 113.54 3.36086C113.54 3.89564 113.358 4.35216 112.981 4.70434C112.603 5.05651 112.135 5.23912 111.589 5.23912C111.056 5.23912 110.6 5.05651 110.223 4.70434C109.846 4.35216 109.664 3.89564 109.664 3.36086C109.664 2.82608 109.846 2.36956 110.223 2.00434Z" fill="#3C3C3B"/>
<path d="M120.499 8.64345L120.043 11.3826H112.668L113.163 8.64345H120.499ZM119.107 4.02606L115.998 21.9347H113.033L116.063 4.02606H119.107Z" fill="#3C3C3B"/>
<path d="M120.785 28.2478H117.442L122.255 20.2522L119.055 8.64346H122.398L124.791 19.1565L123.347 19.0391L129.135 8.64346H132.53L120.785 28.2478Z" fill="#3C3C3B"/>
</svg>
