<svg width="54" height="30" viewBox="0 0 54 30" fill="none" xmlns="http://www.w3.org/2000/svg">
<path d="M30.3123 14.6782C30.3123 22.7435 23.6993 29.3565 15.634 29.3565C7.56884 29.3565 0.955811 22.7658 0.955811 14.6782C0.955811 6.59068 7.5465 0 15.634 0C23.7216 0 30.3123 6.61303 30.3123 14.6782Z" fill="#4353FF"/>
<path d="M20.1023 12.7792C20.1023 12.7792 18.8289 16.7559 18.7395 17.091C18.6948 16.7559 17.7788 9.60669 17.7788 9.60669C15.6117 9.60669 14.45 11.1482 13.8467 12.7792C13.8467 12.7792 12.3052 16.7783 12.1711 17.1134C12.1711 16.8006 11.9254 12.8238 11.9254 12.8238C11.7913 10.8355 9.9817 9.60669 8.50717 9.60669L10.2945 20.4422C12.5733 20.4422 13.7797 18.9007 14.4276 17.2698C14.4276 17.2698 15.7904 13.7398 15.8351 13.5834C15.8575 13.7398 16.8181 20.4422 16.8181 20.4422C19.097 20.4422 20.3034 19.0124 20.9736 17.4261L24.1461 9.58435C21.912 9.60669 20.7279 11.1482 20.1023 12.7792Z" fill="white"/>
<path d="M45.2032 6.24719L43.7063 7.74406L49.6491 13.6868H36.6912V15.8093H49.6491L43.7063 21.7521L45.2032 23.2489L53.7152 14.7369L45.2032 6.24719Z" fill="white"/>
</svg>
