<?xml version="1.0" encoding="utf-8"?>
<!-- Generator: Adobe Illustrator 24.2.3, SVG Export Plug-In . SVG Version: 6.00 Build 0)  -->
<svg version="1.1" xmlns="http://www.w3.org/2000/svg" xmlns:xlink="http://www.w3.org/1999/xlink" x="0px" y="0px"
	 viewBox="0 0 496 207.1" style="enable-background:new 0 0 496 207.1;" xml:space="preserve">
<style type="text/css">
	.st0{fill:#4353FF;}
	.st1{fill:#FFFFFF;}
	.st2{fill:#23282D;}
	.st3{fill:#3C3C3B;}
</style>
<g id="Layer_1">
	<g>
		<g>
			<path class="st0" d="M159.7,103.6c0,36.1-29.6,65.7-65.7,65.7s-65.7-29.5-65.7-65.7S57.8,37.9,94,37.9S159.7,67.5,159.7,103.6z"
				/>
		</g>
		<path class="st1" d="M114,95.2c0,0-5.7,17.8-6.1,19.3c-0.2-1.5-4.3-33.5-4.3-33.5c-9.7,0-14.9,6.9-17.6,14.2
			c0,0-6.9,17.9-7.5,19.4c0-1.4-1.1-19.2-1.1-19.2c-0.6-8.9-8.7-14.4-15.3-14.4l8,48.5c10.2,0,15.6-6.9,18.5-14.2
			c0,0,6.1-15.8,6.3-16.5c0.1,0.7,4.4,30.7,4.4,30.7c10.2,0,15.6-6.4,18.6-13.5l14.2-35.1C122.1,81,116.8,87.9,114,95.2z"/>
	</g>
	<g>
		<path class="st2" d="M402.6,46c7.8,0,15.3,1.5,22.4,4.5c3.4,1.4,6.7,3.3,9.8,5.3c3.1,2.1,6,4.4,8.5,7c2.6,2.6,4.9,5.5,7,8.5
			c2.1,3.1,3.9,6.4,5.3,9.8c3,7.1,4.5,14.6,4.5,22.4s-1.5,15.3-4.5,22.4c-1.4,3.4-3.3,6.7-5.3,9.8c-2.1,3.1-4.4,6-7,8.5
			c-2.6,2.6-5.5,4.9-8.5,7c-3.1,2.1-6.4,3.9-9.8,5.3c-7.1,3-14.6,4.5-22.4,4.5s-15.3-1.5-22.4-4.5c-3.4-1.4-6.7-3.3-9.8-5.3
			c-3.1-2.1-6-4.4-8.5-7c-2.6-2.6-4.9-5.5-7-8.5c-2.1-3.1-3.9-6.4-5.3-9.8c-3-7.1-4.5-14.6-4.5-22.4s1.5-15.3,4.5-22.4
			c1.4-3.4,3.3-6.7,5.3-9.8c2.1-3.1,4.4-6,7-8.5c2.6-2.6,5.5-4.9,8.5-7c3.1-2.1,6.4-3.9,9.8-5.3C387.3,47.5,394.8,46,402.6,46
			 M402.6,42.3c-33.8,0-61.3,27.5-61.3,61.3s27.5,61.3,61.3,61.3s61.3-27.5,61.3-61.3S436.5,42.3,402.6,42.3z"/>
		<path class="st2" d="M351.5,103.7c0,20.2,11.7,37.8,28.8,46l-24.4-66.9C353.1,89.2,351.5,96.2,351.5,103.7z M437.1,101
			c0-6.3-2.3-10.7-4.2-14.1c-2.6-4.2-5-7.7-5-12c0-4.7,3.6-9.1,8.5-9.1c0.2,0,0.5,0.1,0.7,0.1c-9.1-8.3-21.2-13.5-34.6-13.5
			c-17.8,0-33.5,9.2-42.7,23c1.2,0.1,2.4,0.1,3.3,0.1c5.3,0,13.7-0.7,13.7-0.7c2.8-0.2,3.1,3.9,0.3,4.2c0,0-2.8,0.3-5.9,0.5
			l18.6,55.3l11.2-33.5l-7.9-21.8c-2.8-0.2-5.3-0.5-5.3-0.5c-2.8-0.2-2.5-4.4,0.3-4.2c0,0,8.4,0.7,13.5,0.7c5.3,0,13.7-0.7,13.7-0.7
			c2.8-0.2,3.1,3.9,0.3,4.2c0,0-2.8,0.3-5.9,0.5l18.4,54.9l5.2-16.7C435.7,110.6,437.1,105.4,437.1,101z M403.5,108.1l-15.3,44.5
			c4.6,1.3,9.4,2.1,14.4,2.1c6,0,11.7-1,17-2.9c-0.2-0.2-0.3-0.5-0.4-0.7L403.5,108.1z M447.5,79.1c0.2,1.6,0.4,3.4,0.4,5.2
			c0,5.1-1,11-3.9,18.3l-15.6,45.2c15.2-8.8,25.4-25.3,25.4-44.2C453.7,94.7,451.5,86.4,447.5,79.1z"/>
	</g>
</g>
<g id="Livello_1">
	<path class="st3" d="M248,65.4l-6.7,6.7l26.6,26.6h-58v9.5h58l-26.6,26.6l6.7,6.7l38.1-38.1L248,65.4z"/>
</g>
</svg>
