<?xml version="1.0" encoding="utf-8"?>
<!-- Generator: Adobe Illustrator 24.2.3, SVG Export Plug-In . SVG Version: 6.00 Build 0)  -->
<svg version="1.1" xmlns="http://www.w3.org/2000/svg" xmlns:xlink="http://www.w3.org/1999/xlink" x="0px" y="0px"
	 viewBox="0 0 496 207.1" style="enable-background:new 0 0 496 207.1;" xml:space="preserve">
<style type="text/css">
	.st0{fill:#4353FF;}
	.st1{fill:#FFFFFF;}
	.st2{fill:#EE1780;}
	.st3{fill:#3C3C3B;}
</style>
<g id="Layer_1">
	<g>
		<g>
			<path class="st0" d="M155.7,103.6c0,36.1-29.6,65.7-65.7,65.7s-65.7-29.5-65.7-65.7S53.8,37.9,90,37.9S155.7,67.5,155.7,103.6z"
				/>
		</g>
		<path class="st1" d="M110,95.1c0,0-5.7,17.8-6.1,19.3c-0.2-1.5-4.3-33.5-4.3-33.5c-9.7,0-14.9,6.9-17.6,14.2
			c0,0-6.9,17.9-7.5,19.4c0-1.4-1.1-19.2-1.1-19.2c-0.6-8.9-8.7-14.4-15.3-14.4l8,48.5c10.2,0,15.6-6.9,18.5-14.2
			c0,0,6.1-15.8,6.3-16.5c0.1,0.7,4.4,30.7,4.4,30.7c10.2,0,15.6-6.4,18.6-13.5l14.2-35.1C118.1,80.9,112.8,87.8,110,95.1z"/>
	</g>
	<g>
		<g>
			<path class="st1" d="M406.6,54.7c15.5,0,31,0,46.4,0c0,15.8,0,31.6,0,47.4c-15.5,0-31,0-46.4,0C406.6,86.3,406.6,70.5,406.6,54.7
				L406.6,54.7z M357.5,104.8c15.5,0.1,30.9,0,46.4,0.1c0,15.8,0,31.6,0,47.3c-10.7-0.2-21.3-4.4-29.4-11.4
				c-9.1-7.7-15.1-19-16.7-30.8C357.5,108.3,357.3,106.6,357.5,104.8L357.5,104.8z M406.6,105c15.5,0,30.9,0,46.4,0
				c-0.2,10.6-4,21-10.6,29.3c-6.9,8.7-16.9,15-27.8,17.2c-2.6,0.6-5.3,0.8-8,0.9C406.5,136.6,406.6,120.8,406.6,105L406.6,105z"/>
		</g>
		<path class="st2" d="M390.4,39.7c4.4-1,8.8-1.6,13.3-1.8c16.2,0,32.4,0,48.5,0c5.8,0.1,11.6-0.2,17.4,0.1c0,21.9,0,43.7,0,65.6
			c0,12.3-3.4,24.6-10,35.1c-7.4,12-18.8,21.5-32.1,26.5c-6.5,2.5-13.5,3.8-20.5,4.1c-7.2,0.1-14.4-0.9-21.3-3.1
			c-12.7-4.1-24-12.3-31.9-23c-5.7-7.5-9.6-16.3-11.5-25.5c-3-13.8-1.5-28.5,4.3-41.4C354.6,58.2,371.2,44.2,390.4,39.7 M406.6,54.7
			c0,15.8,0,31.6,0,47.4c15.5,0,31,0,46.4,0c0-15.8,0-31.6,0-47.4C437.5,54.7,422.1,54.7,406.6,54.7 M357.5,104.8
			c-0.1,1.7,0.1,3.5,0.3,5.2c1.6,11.8,7.6,23.1,16.7,30.8c8.1,7,18.7,11.2,29.4,11.4c0-15.8,0-31.6,0-47.3
			C388.4,104.8,372.9,104.9,357.5,104.8 M406.6,105c0,15.8,0,31.6,0,47.4c2.7-0.2,5.4-0.4,8-0.9c10.9-2.2,20.9-8.5,27.8-17.2
			c6.6-8.3,10.4-18.7,10.6-29.3C437.5,105,422.1,105,406.6,105z"/>
	</g>
</g>
<g id="Livello_1">
	<path class="st3" d="M248,65.4l-6.7,6.7l26.6,26.6h-58v9.5h58l-26.6,26.6l6.7,6.7l38.1-38.1L248,65.4z"/>
</g>
</svg>
