<?xml version="1.0" encoding="utf-8"?>
<!-- Generator: Adobe Illustrator 24.2.3, SVG Export Plug-In . SVG Version: 6.00 Build 0)  -->
<svg version="1.1" xmlns="http://www.w3.org/2000/svg" xmlns:xlink="http://www.w3.org/1999/xlink" x="0px" y="0px"
	 viewBox="0 0 496 207.1" style="enable-background:new 0 0 496 207.1;" xml:space="preserve">
<style type="text/css">
	.st0{fill:#4353FF;}
	.st1{fill:#FFFFFF;}
	.st2{fill:#678C45;}
	.st3{fill:#9DBD53;}
	.st4{fill:#3C3C3B;}
</style>
<g id="Layer_1">
	<g>
		<g>
			<path class="st0" d="M159.7,103.6c0,36.1-29.6,65.7-65.7,65.7s-65.7-29.5-65.7-65.7S57.8,37.9,94,37.9S159.7,67.5,159.7,103.6z"
				/>
		</g>
		<path class="st1" d="M114,95.2c0,0-5.7,17.8-6.1,19.3c-0.2-1.5-4.3-33.5-4.3-33.5c-9.7,0-14.9,6.9-17.6,14.2
			c0,0-6.9,17.9-7.5,19.4c0-1.4-1.1-19.2-1.1-19.2c-0.6-8.9-8.7-14.4-15.3-14.4l8,48.5c10.2,0,15.6-6.9,18.5-14.2
			c0,0,6.1-15.8,6.3-16.5c0.1,0.7,4.4,30.7,4.4,30.7c10.2,0,15.6-6.4,18.6-13.5l14.2-35.1C122.1,81,116.8,87.9,114,95.2z"/>
	</g>
	<g>
		<g>
			<path class="st2" d="M426.7,179.6l45.7-9.9c0,0-16.5-111.6-16.6-112.3c-0.1-0.7-0.7-1.2-1.3-1.2c-0.6,0-12.2-0.9-12.2-0.9
				s-8.1-8.1-9-8.9c-0.2-0.2-0.5-0.4-0.7-0.5L426.7,179.6z"/>
			<path class="st3" d="M430.5,45.5c-0.1,0-0.4,0.1-0.5,0.1s-1.8,0.5-4.5,1.3c-2.7-7.8-7.5-15-15.9-15c-0.2,0-0.5,0-0.7,0
				c-2.4-3.1-5.4-4.4-7.9-4.4c-19.7,0-29.1,24.6-32,37c-7.6,2.3-13.1,4-13.7,4.3c-4.3,1.3-4.4,1.5-4.9,5.5
				c-0.5,2.9-11.6,89.1-11.6,89.1l85.9,16.1L430.5,45.5z M408.1,51.5c0,0.2,0,0.6,0,0.9c-4.8,1.5-10,3.1-15.2,4.6
				c2.9-11.2,8.4-16.7,13.2-18.8C407.4,41.4,408.1,45.7,408.1,51.5z M400.3,32.9c0.9,0,1.7,0.2,2.6,0.9
				c-6.2,2.9-13.1,10.4-15.9,25.3c-4.2,1.3-8.2,2.6-12,3.7C378.3,51.2,386.3,32.9,400.3,32.9z M403.7,99.3c0,0-5.1-2.7-11.2-2.7
				c-9.2,0-9.5,5.7-9.5,7.2c0,7.8,20.5,10.9,20.5,29.3c0,14.5-9.2,23.8-21.6,23.8c-14.9,0-22.5-9.3-22.5-9.3l4-13.2
				c0,0,7.8,6.7,14.4,6.7c4.3,0,6.1-3.4,6.1-5.9c0-10.3-16.9-10.8-16.9-27.6c0-14.2,10.1-28,30.8-28c7.9,0,11.9,2.3,11.9,2.3
				L403.7,99.3z M411.6,37.4c4.4,0.5,7.2,5.5,9,11.1c-2.2,0.7-4.6,1.5-7.3,2.3c0-0.5,0-1,0-1.6C413.3,44.5,412.7,40.5,411.6,37.4z"
				/>
		</g>
	</g>
</g>
<g id="Livello_1">
	<path class="st4" d="M248,65.4l-6.7,6.7l26.6,26.6h-58v9.5h58l-26.6,26.6l6.7,6.7l38.1-38.1L248,65.4z"/>
</g>
</svg>
