
<svg id="Livello_1" data-name="Livello 1" xmlns="http://www.w3.org/2000/svg" viewBox="0 0 500 500"><defs><style>.cls-1{fill:#3c3c3b;}.cls-2{fill:#fff;}</style></defs><title>udeslysquareblack0</title><rect class="cls-1" x="-11.98" y="-1.56" width="517.41" height="503.11"/><path class="cls-2" d="M402.59,278.13a69.09,69.09,0,0,1-2.67,18.9l-.09.25L398.29,302l-.09.25v.07A146.68,146.68,0,0,1,386,324.5c-.07.11-.15.22-.21.33-25.66,38-60.55,47.33-79.47,49.5h0c-3.64.41-6.85.66-9.27.82h-.22l-.16-.08h-2L293,375h-.25l-.83-.08-.64-.08H291a34.74,34.74,0,0,1-7.87-1.82,24.64,24.64,0,0,1-6.41-3.44h-.05a23.05,23.05,0,0,1-5.78-6.39,63,63,0,0,1-7.91-20.8c-.58-2.8-1-5.74-1.38-8.8v-.47h0v-.16l-.09.15h0c-.86,1.58-1.75,3.13-2.71,4.65q-1.19,1.92-2.46,3.76l-.07.1c-.94,1.33-1.9,2.65-2.89,3.94l-.07.09c-.51.65-1,1.31-1.56,1.95-1.59,1.94-3.26,3.81-5,5.63-.58.61-1.18,1.21-1.79,1.8s-1.2,1.18-1.83,1.76c-1.24,1.16-2.51,2.28-3.83,3.39s-2.68,2.2-4.08,3.26A61.9,61.9,0,0,1,196.69,376H195q-36.7-.28-56.63-14.38Q118,347.23,118,318.92a75.59,75.59,0,0,1,1.42-14.86h0c.21-1.08.45-2.14.71-3.19,18.71-51.58,24.08-105.18,25.41-139.51h0l.62-3.38a14.35,14.35,0,0,1,7.28-10q14-7.53,36.56-7.53,22,0,24.94,28.79,2.37,23.5-2.16,42t-12.24,46.54q-7.68,28.08-7.66,49.68,0,16.26,19.1,17.21c.8.05,1.62.08,2.48.08q23.52,0,40.81-41.28,13.41-31.68,18.24-70.56a9.47,9.47,0,0,0-.13-1h0c-.29-2.4-.48-5.32-.6-8.81q-.25-6-.47-11.76c-.14-3.84-.25-7.68-.25-11.52v-8.65Q272,139,322,138.94c8.28,0,13.5,2.72,15.58,8.17s3.13,13.74,3.13,24.95q0,23.52-10.57,72.94-4.14,19.35-6.57,33.75a.11.11,0,0,0,0,.08c-.23,1.38-.45,2.72-.66,4v.05q-3.09,19.29-2.82,28.81c0,5.46,1.76,8.17,5.29,8.17q7.2,0,17.75-9.12c.31-.25.59-.52.9-.79l1.16-1q9.54-8.35,19.06-18.1l19.44-19.93c5.91-6.06,10-9.11,12.25-9.11Q402.57,261.81,402.59,278.13Z"/><path class="cls-2" d="M296.74,375.17l-2.22-.13h2Z"/></svg>