<svg version="1.1" id="Livello_1" xmlns="http://www.w3.org/2000/svg" xmlns:xlink="http://www.w3.org/1999/xlink" x="0px" y="0px"
	 viewBox="0 0 146 146" style="enable-background:new 0 0 146 146;" xml:space="preserve">
<style type="text/css">
	.st0{fill:#E9E9E9;}
	.st1{fill:#FFFFFF;}
	.st2{fill:#EE1780;}
</style>
<circle class="st0" cx="73" cy="72.6" r="70.5"/>
<path class="st1" d="M73,5c37.5,0,68,30.5,68,68s-30.5,68-68,68S5,110.5,5,73S35.5,5,73,5 M73,0C32.7,0,0,32.7,0,73s32.7,73,73,73
	s73-32.7,73-73S113.3,0,73,0L73,0z"/>
<g>
	<g>
		<path class="st1" d="M73.6,52c6.5,0,13.1,0,19.6,0c0,6.7,0,13.4,0,20c-6.5,0-13.1,0-19.6,0C73.6,65.3,73.6,58.7,73.6,52L73.6,52z
			 M52.8,73.2c6.5,0,13.1,0,19.6,0c0,6.7,0,13.3,0,20c-4.5-0.1-9-1.9-12.4-4.8c-3.8-3.3-6.4-8-7-13C52.8,74.7,52.7,73.9,52.8,73.2
			L52.8,73.2z M73.6,73.2c6.5,0,13.1,0,19.6,0c-0.1,4.5-1.7,8.9-4.5,12.4c-2.9,3.7-7.1,6.3-11.7,7.3c-1.1,0.2-2.2,0.3-3.4,0.4
			C73.5,86.6,73.6,79.9,73.6,73.2L73.6,73.2z"/>
	</g>
	<path class="st2" d="M66.7,45.6c1.8-0.4,3.7-0.7,5.6-0.8c6.8,0,13.7,0,20.5,0c2.4,0,4.9-0.1,7.4,0.1c0,9.2,0,18.5,0,27.7
		c0,5.2-1.5,10.4-4.2,14.8c-3.1,5.1-8,9.1-13.6,11.2c-2.8,1.1-5.7,1.6-8.7,1.7c-3,0.1-6.1-0.4-9-1.3c-5.4-1.7-10.1-5.2-13.5-9.7
		c-2.4-3.2-4-6.9-4.9-10.8c-1.3-5.8-0.6-12.1,1.8-17.5C51.6,53.5,58.6,47.5,66.7,45.6 M73.6,52c0,6.7,0,13.4,0,20
		c6.5,0,13.1,0,19.6,0c0-6.7,0-13.4,0-20C86.6,52,80.1,52,73.6,52 M52.8,73.2c-0.1,0.7,0,1.5,0.1,2.2c0.7,5,3.2,9.7,7,13
		c3.4,3,7.9,4.7,12.4,4.8c0-6.7,0-13.3,0-20C65.9,73.2,59.3,73.2,52.8,73.2 M73.6,73.2c0,6.7,0,13.4,0,20c1.1-0.1,2.3-0.2,3.4-0.4
		c4.6-0.9,8.8-3.6,11.7-7.3c2.8-3.5,4.4-7.9,4.5-12.4C86.6,73.2,80.1,73.2,73.6,73.2z"/>
</g>
</svg>