<?xml version="1.0" encoding="utf-8"?>
<!-- Generator: Adobe Illustrator 27.8.0, SVG Export Plug-In . SVG Version: 6.00 Build 0)  -->
<svg version="1.1" id="Layer_1" xmlns="http://www.w3.org/2000/svg" xmlns:xlink="http://www.w3.org/1999/xlink" x="0px" y="0px"
	 viewBox="0 0 883.8 274.5" style="enable-background:new 0 0 883.8 274.5;" xml:space="preserve">
<style type="text/css">
	.st0{fill:#FFFFFF;}
	.st1{fill:#6F39F8;}
</style>
<g>
	<g>
		<g>
			<g>
				<path class="st0" d="M328.5,90.8c8.4-8.2,22.2-16.1,39.1-16.1c23.9,0,40.3,18.1,37.7,43.8l-8.2,77.6h-27.8l7.4-69.2
					c2.3-19.8-9.3-27.8-22.2-27.8c-11.5,0-26.6,9.1-28.4,25.7l-7.6,71.2h-27.8l12.6-118.2h26.6L328.5,90.8z"/>
				<path class="st0" d="M417.2,141.9c-2.7-37.1,23.7-69.8,63.6-69.8c29.4,0,50.4,18.1,59.3,44.1l2.7,8.4L451,158.4
					c6.4,12.1,19.1,20.2,37.9,20.2c13.8,0,26.1-6.8,35.4-17.5l16.3,19.1c-12.8,13-28.4,22.2-53.5,22.2
					C448.7,202.4,419.7,175.9,417.2,141.9z M446.3,136.9l64-23.7c-6.4-11.3-16.1-17.5-29-17.5C463.1,95.8,446.5,111,446.3,136.9z"/>
				<path class="st0" d="M581.7,78.1l22.4,41.4l34-41.4h30.3L619,136.4l34,59.9h-29.2l-24.3-43l-35.8,43h-30.6l51.5-61.3l-32.5-56.9
					H581.7z"/>
				<path class="st0" d="M679.7,78.1h27.8l-7.2,69.2c-2.3,19.8,9.1,27.8,22,27.8c11.3,0,26.1-8.6,28.4-24.5l7.6-72.5h27.8
					l-12.6,118.2h-26.6l1.4-12.8c-8.4,8.2-22.4,16.1-39.1,16.1c-24.1,0-40.3-18.1-37.9-43.8L679.7,78.1z"/>
				<path class="st0" d="M869.3,79.1l-2.7,24.7c-8.4-4.5-17.3-6.6-23.9-6.6c-9.3,0-15.6,3.5-15.6,9.9c0,4.5,3.7,8.4,15,16.9
					c23.5,17.1,30.5,27.8,30.5,40.8c0,21-17.7,35.4-44.9,35.4c-12.4,0-26.6-3.7-36.2-8.2l2.5-24.7c11.9,6.4,23.5,9.3,31.1,9.3
					c11.7,0,18.1-4.3,18.1-10.9c0-4.3-2.7-9.1-19.8-21.4c-20.4-15-25.5-22.9-25.5-36.4c0-17.9,14.6-33.8,44.1-33.8
					C853.5,74,862.5,76.2,869.3,79.1z"/>
			</g>
		</g>
		<path class="st0" d="M161.5,203.6l-1.2-0.1h1.1L161.5,203.6z"/>
	</g>
	<g>
		<circle class="st1" cx="140.9" cy="137.2" r="129.8"/>
		<path class="st0" d="M223.5,152.1c0,3.4-0.5,6.8-1.4,10l0,0.1l-0.8,2.5l0,0.1v0c-1.8,4.1-4,8-6.5,11.7l-0.1,0.2
			c-13.6,20.1-32.1,25.1-42.1,26.2l0,0c-1.9,0.2-3.6,0.3-4.9,0.4h-0.2l-0.1,0h-1.1l-0.9,0h-0.1l-0.4,0l-0.3,0h-0.1
			c-1.4-0.2-2.8-0.5-4.2-1c-1.2-0.4-2.4-1.1-3.4-1.8h0c-1.2-0.9-2.3-2.1-3.1-3.4c-2-3.4-3.5-7.1-4.2-11c-0.3-1.5-0.5-3-0.7-4.7
			c0-0.1,0-0.2,0-0.2l0,0v-0.1l0,0.1l0,0c-0.5,0.8-0.9,1.7-1.4,2.5c-0.4,0.7-0.9,1.3-1.3,2l0,0.1c-0.5,0.7-1,1.4-1.5,2.1l0,0
			c-0.3,0.3-0.5,0.7-0.8,1c-0.8,1-1.7,2-2.6,3c-0.3,0.3-0.6,0.6-0.9,1s-0.6,0.6-1,0.9c-0.7,0.6-1.3,1.2-2,1.8
			c-0.7,0.6-1.4,1.2-2.2,1.7c-5.8,4.4-13,6.8-20.4,6.7h-0.9c-13-0.1-23-2.6-30-7.6c-7.2-5.1-10.8-12.6-10.8-22.6
			c0-2.6,0.2-5.3,0.8-7.9l0,0c0.1-0.6,0.2-1.1,0.4-1.7c9.9-27.3,12.8-55.7,13.5-73.9l0,0l0.3-1.8c0.4-2.3,1.8-4.2,3.9-5.3
			c4.9-2.7,11.4-4,19.4-4c7.8,0,12.2,5.1,13.2,15.2c0.8,8.3,0.5,15.7-1.1,22.2c-1.6,6.5-3.8,14.7-6.5,24.6
			c-2.7,9.9-4.1,18.7-4.1,26.3c0,5.7,3.4,8.8,10.1,9.1c0.4,0,0.9,0,1.3,0c8.3,0,15.5-7.3,21.6-21.9c4.7-11.2,8-23.6,9.7-37.4
			c0-0.2,0-0.4-0.1-0.5l0,0c-0.1-1.3-0.3-2.8-0.3-4.7c-0.1-2.1-0.2-4.2-0.2-6.2c-0.1-2-0.1-4.1-0.1-6.1v-4.6c0-11.3,8.8-17,26.4-17
			c4.4,0,7.1,1.4,8.3,4.3s1.7,7.3,1.7,13.2c0,8.3-1.9,21.2-5.6,38.6c-1.5,6.8-2.6,12.8-3.5,17.9c0,0,0,0,0,0
			c-0.1,0.7-0.2,1.4-0.3,2.1v0c-1.1,6.8-1.6,11.9-1.5,15.3c0,2.9,0.9,4.3,2.8,4.3c2.5,0,5.7-1.6,9.4-4.8c0.2-0.1,0.3-0.3,0.5-0.4
			l0.6-0.5c3.4-2.9,6.7-6.1,10.1-9.6c3.7-3.8,7.1-7.4,10.3-10.6c3.1-3.2,5.3-4.8,6.5-4.8C222.3,143.5,223.5,146.4,223.5,152.1z"/>
	</g>
</g>
</svg>
