<svg width="127" height="40" viewBox="0 0 127 40" fill="none" xmlns="http://www.w3.org/2000/svg">
    <g id="Udesly Nexus Logo 1">
    <g id="Group">
    <g id="Group_2">
    <path id="Vector" d="M19.744 1.09277C9.44088 1.09277 1.09204 9.55908 1.09204 20.0072C1.09204 30.4553 9.44088 38.907 19.744 38.907C30.0471 38.907 38.396 30.4407 38.396 19.9926C38.396 9.5445 30.0471 1.09277 19.744 1.09277ZM31.3979 23.6356V23.6502L31.2829 24.0145V24.029C31.0243 24.6265 30.7081 25.1948 30.3489 25.7339L30.3345 25.7631C28.3659 28.7066 25.7218 29.4352 24.2705 29.5955C23.9974 29.6247 23.7532 29.6392 23.5664 29.6538H23.5376H23.5232H23.3652H23.2359H23.2215H23.164H23.1209H23.1065C22.9053 29.6247 22.7042 29.5809 22.503 29.5081C22.3306 29.4498 22.1581 29.3478 22.0144 29.2458C21.842 29.1146 21.6839 28.9398 21.569 28.7503C21.2816 28.2549 21.066 27.7157 20.9654 27.1474C20.9223 26.9288 20.8936 26.7103 20.8648 26.4625C20.8648 26.448 20.8648 26.4334 20.8648 26.4334C20.793 26.55 20.7355 26.6811 20.6637 26.7977C20.6062 26.8997 20.5343 26.9871 20.4769 27.0891V27.1037C20.405 27.2057 20.3332 27.3077 20.2613 27.4097C20.2182 27.4534 20.1895 27.5117 20.1464 27.5554C20.0314 27.7012 19.9021 27.8469 19.7727 27.9926C19.7296 28.0363 19.6865 28.08 19.6434 28.1383C19.6003 28.182 19.5572 28.2257 19.4997 28.2695C19.3991 28.3569 19.3129 28.4443 19.2123 28.5318C19.1117 28.6192 19.0111 28.7066 18.8962 28.7795C18.0627 29.4206 17.0281 29.7704 15.9648 29.7558H15.8067C13.9386 29.7412 12.5016 29.3769 11.4958 28.6483C10.4611 27.9052 9.94382 26.8123 9.94382 25.3551C9.94382 24.9762 9.97256 24.5828 10.0588 24.2039C10.0731 24.1165 10.0875 24.0436 10.1163 23.9562C11.5389 19.978 11.9556 15.8396 12.0562 13.1875L12.0993 12.9252C12.1568 12.59 12.3579 12.3132 12.6597 12.1529C13.3638 11.7594 14.2979 11.57 15.4474 11.57C16.5683 11.57 17.2006 12.3132 17.3442 13.7849C17.4592 14.9944 17.4161 16.0727 17.1862 17.0199C16.9563 17.9671 16.6401 19.162 16.2521 20.6046C15.8642 22.0472 15.663 23.3296 15.663 24.437C15.663 25.2676 16.1516 25.7194 17.1143 25.7631C17.1718 25.7631 17.2437 25.7631 17.3011 25.7631C18.4938 25.7631 19.5285 24.6993 20.405 22.5718C21.0804 20.9398 21.5546 19.1328 21.7989 17.1219C21.7989 17.0928 21.7989 17.0636 21.7845 17.0491C21.7701 16.8596 21.7414 16.641 21.7414 16.3642C21.727 16.0582 21.7127 15.7522 21.7127 15.4607C21.6983 15.1693 21.6983 14.8633 21.6983 14.5718V13.9015C21.6983 12.2549 22.9628 11.4243 25.4919 11.4243C26.1242 11.4243 26.5265 11.6283 26.6846 12.0509C26.8427 12.4735 26.9289 13.1146 26.9289 13.9744C26.9289 15.1838 26.6559 17.0636 26.1242 19.5991C25.9086 20.59 25.7506 21.4644 25.6212 22.2075C25.6069 22.3095 25.5925 22.4115 25.5781 22.5135C25.4201 23.5044 25.3482 24.2476 25.3626 24.743C25.3626 25.1656 25.4919 25.3696 25.7649 25.3696C26.1242 25.3696 26.584 25.1365 27.1157 24.6702C27.1444 24.6556 27.1588 24.6265 27.1875 24.6119L27.2738 24.539C27.7623 24.1165 28.2365 23.6502 28.7251 23.1401C29.2568 22.5864 29.7454 22.0618 30.2052 21.5955C30.6507 21.1292 30.9668 20.8961 31.1392 20.8961C31.4841 20.8961 31.6565 21.3186 31.6565 22.1492C31.5991 22.6593 31.5416 23.1547 31.3979 23.6356Z" fill="#6F39F8"/>
    <g id="Group_3">
    <path id="Vector_2" d="M47.4777 13.2313C48.6847 12.0364 50.6678 10.8853 53.0962 10.8853C56.5306 10.8853 58.8873 13.5228 58.5137 17.2678L57.3353 28.5756H53.3405L54.4039 18.4918C54.7344 15.6066 53.0675 14.4408 51.2138 14.4408C49.5613 14.4408 47.3915 15.7669 47.1328 18.1858L46.0407 28.561H42.0459L43.8565 11.337H47.6788L47.4777 13.2313Z" fill="white"/>
    <path id="Vector_3" d="M60.2238 20.6776C59.8358 15.2714 63.6294 10.5063 69.3629 10.5063C73.5876 10.5063 76.6053 13.1439 77.8842 16.9326L78.2722 18.1566L65.0807 23.0819C66.0004 24.8451 67.8254 26.0255 70.5269 26.0255C72.5099 26.0255 74.2774 25.0346 75.6138 23.4754L77.9561 26.2586C76.1167 28.153 73.875 29.4936 70.2682 29.4936C64.7502 29.4936 60.583 25.632 60.2238 20.6776ZM64.4054 19.949L73.602 16.4954C72.6823 14.8488 71.2885 13.9453 69.4348 13.9453C66.8195 13.9599 64.4341 16.1748 64.4054 19.949Z" fill="white"/>
    <path id="Vector_4" d="M83.8619 11.3809L87.0807 17.4136L91.9664 11.3809H96.3205L89.2218 19.8763L94.1075 28.6049H89.9116L86.4197 22.339L81.2753 28.6049H76.8782L84.2786 19.6723L79.6084 11.3809H83.8619Z" fill="white"/>
    <path id="Vector_5" d="M97.9442 11.3809H101.939L100.904 21.4646C100.574 24.3499 102.212 25.5157 104.066 25.5157C105.69 25.5157 107.816 24.2625 108.147 21.9455L109.239 11.3809H113.234L111.423 28.6049H107.601L107.802 26.7397C106.595 27.9346 104.583 29.0858 102.183 29.0858C98.7202 29.0858 96.3923 26.4483 96.7372 22.7033L97.9442 11.3809Z" fill="white"/>
    <path id="Vector_6" d="M125.189 11.5264L124.801 15.1257C123.594 14.47 122.315 14.164 121.367 14.164C120.031 14.164 119.125 14.674 119.125 15.6066C119.125 16.2623 119.657 16.8306 121.281 18.0692C124.658 20.561 125.664 22.1202 125.664 24.0146C125.664 27.0747 123.12 29.1731 119.212 29.1731C117.43 29.1731 115.389 28.6339 114.01 27.9782L114.369 24.3789C116.079 25.3115 117.746 25.7341 118.838 25.7341C120.519 25.7341 121.439 25.1075 121.439 24.1457C121.439 23.5192 121.051 22.8197 118.594 21.0274C115.662 18.8416 114.929 17.6904 114.929 15.7232C114.929 13.1148 117.027 10.7978 121.266 10.7978C122.919 10.7833 124.212 11.1039 125.189 11.5264Z" fill="white"/>
    </g>
    </g>
    <path id="Vector_7" d="M23.4801 29.6684L23.3076 29.6538H23.4657L23.4801 29.6684Z" fill=""/>
    </g>
    </g>
    </svg>        