<svg id="Livello_1" xmlns="http://www.w3.org/2000/svg" viewBox="0 0 146 146"><circle cx="73" cy="73" r="70.5" style="fill:#e9e9e9; stroke-width:0px;"/><path d="m73,5c37.5,0,68,30.5,68,68s-30.5,68-68,68S5,110.5,5,73,35.5,5,73,5M73,0C32.7,0,0,32.7,0,73s32.7,73,73,73,73-32.7,73-73S113.3,0,73,0h0Z" style="fill:#fff; stroke-width:0px;"/><path d="m95.3,52.4c-.05-.34-.34-.53-.59-.55-.24-.02-5.43-.4-5.43-.4,0,0-3.6-3.58-4-3.97-.4-.4-1.17-.28-1.47-.19-.04.01-.79.24-2.02.62-1.2-3.46-3.33-6.64-7.06-6.64-.1,0-.21,0-.32.01-1.06-1.4-2.38-2.01-3.51-2.01-8.7,0-12.86,10.88-14.16,16.4-3.38,1.05-5.78,1.79-6.09,1.89-1.89.59-1.95.65-2.19,2.43-.19,1.35-5.12,39.53-5.12,39.53l38.47,7.21,20.85-4.51s-7.32-49.48-7.36-49.82h0Zm-15.62-3.83l-3.26,1.01c0-.23,0-.46,0-.7,0-2.15-.3-3.88-.78-5.26,1.92.24,3.21,2.43,4.03,4.95Zm-6.42-4.52c.54,1.34.88,3.26.88,5.86,0,.13,0,.25,0,.38-2.12.66-4.42,1.37-6.72,2.08,1.29-5,3.72-7.41,5.84-8.32Zm-2.58-2.45c.38,0,.75.13,1.12.38-2.79,1.31-5.78,4.62-7.04,11.22l-5.31,1.65c1.48-5.03,4.99-13.24,11.24-13.24h0Z" style="fill:#95bf46; stroke-width:0px;"/><path d="m94.71,51.86c-.24-.02-5.43-.4-5.43-.4,0,0-3.6-3.58-4-3.97-.15-.15-.35-.22-.56-.26l-2.91,59.5,20.84-4.51s-7.32-49.48-7.36-49.82c-.05-.34-.34-.53-.59-.55" style="fill:#5e8e3e; stroke-width:0px;"/><path d="m74.74,63.38l-2.57,7.65s-2.25-1.2-5.01-1.2c-4.05,0-4.25,2.54-4.25,3.18,0,3.49,9.1,4.83,9.1,13.01,0,6.44-4.08,10.58-9.59,10.58-6.6,0-9.98-4.11-9.98-4.11l1.77-5.84s3.47,2.98,6.4,2.98c1.91,0,2.69-1.51,2.69-2.61,0-4.56-7.47-4.76-7.47-12.24,0-6.3,4.52-12.4,13.65-12.4,3.52,0,5.25,1.01,5.25,1.01" style="fill:#fff; stroke-width:0px;"/></svg>