<svg id="Livello_1" xmlns="http://www.w3.org/2000/svg" viewBox="0 0 1292.17 1292.17"><path d="m646.08,106.69c72.82,0,143.43,14.27,209.98,42.44,64.21,27.19,121.9,66.06,171.48,115.63,49.57,49.57,88.44,107.26,115.63,171.48,28.17,66.55,42.44,137.16,42.44,209.98s-14.39,143.31-42.56,209.85c-27.19,64.21-66.06,121.9-115.63,171.48s-107.26,88.44-171.48,115.63c-66.55,28.17-137.16,42.44-209.98,42.44s-143.31-14.39-209.85-42.56c-64.21-27.19-121.9-66.06-171.48-115.63-49.57-49.57-88.44-107.26-115.63-171.48-28.05-66.43-42.32-137.03-42.32-209.85s14.27-143.43,42.44-209.98c27.19-64.21,66.06-121.9,115.63-171.48,49.57-49.57,107.26-88.44,171.48-115.63,66.43-28.05,137.03-42.32,209.85-42.32m0-6.15c-301.25,0-545.55,244.3-545.55,545.55s244.3,545.55,545.55,545.55,545.55-244.3,545.55-545.55S947.33,100.53,646.08,100.53h0Z" style="fill:#e9e9e9; stroke-width:0px;"/><path d="m646.08,252.38c53.14,0,104.66,10.43,153.28,30.98,46.9,19.79,88.96,48.19,125.1,84.33,36.14,36.14,64.54,78.31,84.33,125.1,20.55,48.62,30.98,100.15,30.98,153.28s-10.43,104.66-30.98,153.28c-19.79,46.9-48.19,88.96-84.33,125.1-36.14,36.14-78.31,64.54-125.1,84.33-48.62,20.55-100.15,30.98-153.28,30.98s-104.66-10.43-153.28-30.98c-46.9-19.79-88.96-48.19-125.1-84.33s-64.54-78.31-84.33-125.1c-20.55-48.62-30.98-100.15-30.98-153.28s10.43-104.66,30.98-153.28c19.79-46.9,48.19-88.96,84.33-125.1s78.31-64.54,125.1-84.33c48.62-20.55,100.15-30.98,153.28-30.98m0-5.38c-220.41,0-399.08,178.67-399.08,399.08s178.67,399.08,399.08,399.08,399.08-178.67,399.08-399.08-178.67-399.08-399.08-399.08h0Z" style="fill:#e9e9e9; stroke-width:0px;"/><path d="m646.08,408.47c32.05,0,63.15,6.29,92.44,18.7,28.26,11.98,53.67,29.12,75.56,50.92,21.8,21.8,38.94,47.21,50.92,75.56,12.41,29.29,18.7,60.39,18.7,92.44s-6.29,63.15-18.7,92.44c-11.98,28.26-29.12,53.67-50.92,75.56-21.8,21.88-47.21,38.94-75.56,50.92-29.29,12.41-60.39,18.7-92.44,18.7s-63.15-6.29-92.44-18.7c-28.26-11.98-53.67-29.12-75.56-50.92-21.8-21.8-38.94-47.21-50.92-75.56-12.41-29.29-18.7-60.39-18.7-92.44s6.29-63.15,18.7-92.44c11.98-28.26,29.12-53.67,50.92-75.56,21.8-21.8,47.21-38.94,75.56-50.92,29.29-12.41,60.39-18.7,92.44-18.7m0-4.31c-133.62,0-241.92,108.29-241.92,241.92s108.29,241.92,241.92,241.92,241.92-108.29,241.92-241.92-108.29-241.92-241.92-241.92h0Z" style="fill:#e9e9e9; stroke-width:0px;"/><rect x="520.33" y="520.33" width="251.52" height="251.52" rx="125.76" ry="125.76" style="fill:#146ef5; stroke-width:0px;"/><path d="m723.73,609.46l-43.41,84.87h-40.78l18.17-35.17h-.82c-14.99,19.46-37.35,32.27-69.22,35.17v-34.69s20.39-1.2,32.37-13.8h-32.37v-36.38h36.38v29.92h.82s14.87-29.92,14.87-29.92h27.51v29.73h.82s15.42-29.73,15.42-29.73h40.24Z" style="fill:#fff; fill-rule:evenodd; stroke-width:0px;"/></svg>