<svg id="Livello_1" xmlns="http://www.w3.org/2000/svg" viewBox="0 0 146 146"><circle cx="73" cy="73" r="70.5" style="fill:#e9e9e9; stroke-width:0px;"/><path d="m73,5c37.5,0,68,30.5,68,68s-30.5,68-68,68S5,110.5,5,73,35.5,5,73,5M73,0C32.7,0,0,32.7,0,73s32.7,73,73,73,73-32.7,73-73S113.3,0,73,0h0Z" style="fill:#fff; stroke-width:0px;"/><path d="m45.62,73.39c0,11.04,6.41,20.57,15.71,25.09l-13.3-36.44c-1.55,3.47-2.41,7.3-2.41,11.35Z" style="fill:#464342; stroke-width:0px;"/><path d="m92.32,71.98c0-3.45-1.24-5.83-2.3-7.69-1.41-2.3-2.74-4.24-2.74-6.54,0-2.56,1.94-4.95,4.68-4.95.12,0,.24.02.36.02-4.96-4.54-11.57-7.32-18.83-7.32-9.74,0-18.31,5-23.29,12.57.65.02,1.27.03,1.79.03,2.92,0,7.43-.35,7.43-.35,1.5-.09,1.68,2.12.18,2.3,0,0-1.51.18-3.19.27l10.15,30.2,6.1-18.3-4.34-11.9c-1.5-.09-2.92-.27-2.92-.27-1.5-.09-1.33-2.39.18-2.3,0,0,4.6.35,7.34.35,2.92,0,7.43-.35,7.43-.35,1.5-.09,1.68,2.12.18,2.3,0,0-1.51.18-3.19.27l10.08,29.97,2.78-9.29c1.21-3.86,2.12-6.63,2.12-9.01Z" style="fill:#464342; stroke-width:0px;"/><path d="m73.99,75.83l-8.36,24.31c2.5.73,5.14,1.14,7.88,1.14,3.25,0,6.36-.56,9.26-1.58-.07-.12-.14-.25-.2-.38l-8.57-23.48Z" style="fill:#464342; stroke-width:0px;"/><path d="m97.96,60.01c.12.89.19,1.84.19,2.87,0,2.83-.53,6.01-2.12,9.99l-8.52,24.62c8.29-4.83,13.86-13.81,13.86-24.1,0-4.85-1.24-9.41-3.42-13.38Z" style="fill:#464342; stroke-width:0px;"/><path d="m73.5,40.89c-17.92,0-32.5,14.58-32.5,32.5s14.58,32.5,32.5,32.5,32.5-14.58,32.5-32.5c0-17.92-14.58-32.5-32.5-32.5Zm0,63.51c-17.1,0-31.01-13.91-31.01-31.01s13.91-31.01,31.01-31.01,31.01,13.91,31.01,31.01-13.91,31.01-31.01,31.01Z" style="fill:#464342; stroke-width:0px;"/></svg>